<?xml version="1.0" standalone="no"?>
<!DOCTYPE svg PUBLIC "-//W3C//DTD SVG 20010904//EN"
 "http://www.w3.org/TR/2001/REC-SVG-20010904/DTD/svg10.dtd">
<svg version="1.0" xmlns="http://www.w3.org/2000/svg"
 width="16.000000pt" height="16.000000pt" viewBox="0 0 16.000000 16.000000"
 preserveAspectRatio="xMidYMid meet">
<metadata>
Created by potrace 1.11, written by Peter Selinger 2001-2013
</metadata>
<g transform="translate(0.000000,16.000000) scale(0.005926,-0.005926)"
fill="#000000" stroke="none">
<path d="M1219 2696 c-2 -2 -26 -6 -54 -10 -370 -45 -722 -266 -938 -589 -144
-215 -217 -453 -222 -717 -4 -224 25 -376 111 -572 174 -403 561 -711 982
-784 12 -2 34 -7 50 -10 59 -12 319 -12 397 1 151 25 257 57 385 118 276 131
497 349 628 619 103 211 141 385 137 618 -3 168 -21 279 -72 424 -156 452
-536 781 -1018 882 -69 14 -375 30 -386 20z"/>
</g>
</svg>
